<svg version="1.0" xmlns="http://www.w3.org/2000/svg" viewBox="206.3 148 485.715 245.859"><path d="M223.4 165.2l-17.1 17.3.1 105.5.1 105.5 15.5.2c8.5.2 16.1-.1 16.7-.5 1-.6 1.3-11.2 1.3-45.5 0-24.6-.3-45.5-.8-46.4-.9-1.8-.7-28.3.3-38.3.3-3 .7-21.9 1.1-42 .4-26.5.8-36.7 1.7-37.2.7-.5 30.2-.7 65.7-.6l64.5.3 5 2.4c6.3 3 16.5 13.4 18.4 18.6.8 2.2 1.6 8.1 1.8 13.1.4 8.7.3 9.5-2.7 15.7-3.8 7.8-8.8 12.7-16.7 16.6-5.6 2.8-6.7 3-21.6 3.4-8.7.2-16 .7-16.3 1-.3.3 2.8 3.8 7 7.9 4.2 4 8.4 8.1 9.3 9.1 1 1 5 5.3 9 9.4 5 5.2 7.6 7.3 8.5 6.7.7-.5 3.6-1.1 6.3-1.5 2.8-.4 6.6-1.3 8.5-2 7.2-2.8 18.5-10.5 24.7-16.9 5.1-5.1 14.3-18.7 14.3-21 0-.9.4-2 1-2.6 1.4-1.4 5-19.1 5-25 0-11.1-4.3-25.5-11.6-38.7-2.8-5-13.5-15.6-20.3-20.1-8.1-5.4-12.4-7.3-22.4-9.7-7.3-1.8-12.3-1.9-73.5-1.9h-65.7l-17.1 17.2z"/><path d="M481.6 165.7L464 183.4l.1 69.3c.1 51.1.4 69.5 1.2 70 1.7 1 29.8 1.1 32 .1 1.6-.8 1.7-2.9 1.6-27.6-.2-39.1 1.1-110.6 2-111.5.5-.5 30-.7 65.7-.5l64.9.3 6.3 3.4c6.8 3.7 12.6 9.6 16.3 16.4 2 3.6 2.3 5.7 2.3 15.2 0 10.7-.1 11.2-3.3 16.5-4.1 6.8-10 12.2-17 15.5l-5.3 2.6h-47.2c-30.8.1-47.5.4-48.3 1.1-1 .8-1.3 5.3-1.3 16.4 0 12.5.3 15.5 1.6 16.8 1.4 1.4 7 1.6 47.8 1.4l46.3-.2 7.4 3.3c5.9 2.6 8.2 4.3 11.5 8.4 7.4 9.3 7.9 10.8 7.9 23.7 0 11.5 0 11.5-3.6 17.1-4 6.1-10.2 11.9-16.4 15.2l-4 2.2-113.4.3-113.3.2-34.7-34.8c-19-19.1-35.4-35.1-36.4-35.5-.9-.4-2-1.5-2.4-2.4-.4-1-7.6-8.7-16-17.2l-15.4-15.3-24-.2c-13.2-.2-24.2 0-24.4.4-.6 1 17.3 19 23.5 23.6 3 2.2 8 6.9 11 10.4s27.7 28.6 54.7 55.9l49.3 49.6 116.2.3c124.9.2 127 .2 141.8-5.3 4.9-1.8 15.7-8.8 20.7-13.4 9-8.3 16.8-21.3 20.3-33.6 3.6-12.6 2.2-35.3-2.8-44.2-.7-1.2-1.2-2.7-1.2-3.3 0-1.6-8.2-13.8-12.4-18.4-2-2.2-3.6-4.3-3.6-4.8 0-1.2 3.7-6.1 8.5-11.3 8.8-9.4 12.6-20.9 13.2-39.6.4-11.8.2-14.6-1.6-20.3-4.1-13.2-8.4-20.7-18.1-30.9-4.9-5.2-16.6-13.4-20.9-14.7-1.5-.4-3.6-1.2-4.7-1.8-1-.6-4.9-1.8-8.6-2.6-5.7-1.4-16.3-1.6-72.6-1.6h-65.9l-17.7 17.7z"/></svg>